<mxfile host="65bd71144e">
    <diagram id="fBgknKzejfJEcdzRlylG" name="Page-1">
        <mxGraphModel dx="707" dy="1069" grid="1" gridSize="10" guides="1" tooltips="1" connect="1" arrows="1" fold="1" page="1" pageScale="1" pageWidth="850" pageHeight="1100" math="0" shadow="0">
            <root>
                <mxCell id="0"/>
                <mxCell id="1" parent="0"/>
                <mxCell id="4" value="C" style="ellipse;whiteSpace=wrap;html=1;aspect=fixed;strokeColor=#000000;" vertex="1" parent="1">
                    <mxGeometry x="210" y="260" width="40" height="40" as="geometry"/>
                </mxCell>
                <mxCell id="7" value="D" style="ellipse;whiteSpace=wrap;html=1;aspect=fixed;strokeColor=#000000;" vertex="1" parent="1">
                    <mxGeometry x="300" y="140" width="40" height="40" as="geometry"/>
                </mxCell>
                <mxCell id="8" style="edgeStyle=none;jumpStyle=arc;html=1;endArrow=open;endFill=0;strokeColor=#000000;endSize=10;strokeWidth=3;" edge="1" parent="1" source="9" target="17">
                    <mxGeometry relative="1" as="geometry"/>
                </mxCell>
                <mxCell id="9" value="" style="ellipse;whiteSpace=wrap;html=1;aspect=fixed;strokeColor=#000000;" vertex="1" parent="1">
                    <mxGeometry x="350" y="280" width="40" height="40" as="geometry"/>
                </mxCell>
                <mxCell id="12" value="F" style="ellipse;whiteSpace=wrap;html=1;aspect=fixed;strokeColor=#000000;" vertex="1" parent="1">
                    <mxGeometry x="385" y="180" width="40" height="40" as="geometry"/>
                </mxCell>
                <mxCell id="13" style="edgeStyle=none;jumpStyle=arc;html=1;endArrow=open;endFill=0;strokeColor=#000000;endSize=10;strokeWidth=3;" edge="1" parent="1" source="34" target="15">
                    <mxGeometry relative="1" as="geometry">
                        <mxPoint x="500" y="220" as="sourcePoint"/>
                    </mxGeometry>
                </mxCell>
                <mxCell id="14" style="edgeStyle=none;jumpStyle=arc;jumpSize=10;html=1;endArrow=open;endFill=0;strokeColor=#000000;endSize=10;strokeWidth=3;" edge="1" parent="1" source="15" target="26">
                    <mxGeometry relative="1" as="geometry"/>
                </mxCell>
                <mxCell id="15" value="H" style="ellipse;whiteSpace=wrap;html=1;aspect=fixed;strokeColor=#000000;" vertex="1" parent="1">
                    <mxGeometry x="460" y="140" width="40" height="40" as="geometry"/>
                </mxCell>
                <mxCell id="17" value="" style="ellipse;whiteSpace=wrap;html=1;aspect=fixed;strokeColor=#000000;" vertex="1" parent="1">
                    <mxGeometry x="460" y="250" width="40" height="40" as="geometry"/>
                </mxCell>
                <mxCell id="19" value="I" style="ellipse;whiteSpace=wrap;html=1;aspect=fixed;strokeColor=#000000;" vertex="1" parent="1">
                    <mxGeometry x="520" y="210" width="40" height="40" as="geometry"/>
                </mxCell>
                <mxCell id="21" value="" style="ellipse;whiteSpace=wrap;html=1;aspect=fixed;strokeColor=#000000;" vertex="1" parent="1">
                    <mxGeometry x="200" y="150" width="40" height="40" as="geometry"/>
                </mxCell>
                <mxCell id="24" style="edgeStyle=none;jumpStyle=arc;jumpSize=10;html=1;endArrow=open;endFill=0;strokeColor=#000000;endSize=10;strokeWidth=3;" edge="1" parent="1" source="25" target="21">
                    <mxGeometry relative="1" as="geometry"/>
                </mxCell>
                <mxCell id="25" value="A" style="ellipse;whiteSpace=wrap;html=1;aspect=fixed;fillColor=#008a00;fontColor=#ffffff;strokeColor=#000000;" vertex="1" parent="1">
                    <mxGeometry x="120" y="210" width="40" height="40" as="geometry"/>
                </mxCell>
                <mxCell id="26" value="J" style="ellipse;whiteSpace=wrap;html=1;aspect=fixed;strokeColor=#000000;" vertex="1" parent="1">
                    <mxGeometry x="605" y="210" width="40" height="40" as="geometry"/>
                </mxCell>
                <mxCell id="29" value="source" style="text;html=1;strokeColor=none;fillColor=none;align=center;verticalAlign=middle;whiteSpace=wrap;rounded=0;" vertex="1" parent="1">
                    <mxGeometry x="115" y="250" width="50" height="20" as="geometry"/>
                </mxCell>
                <mxCell id="31" value="" style="ellipse;whiteSpace=wrap;html=1;aspect=fixed;strokeColor=#000000;" vertex="1" parent="1">
                    <mxGeometry x="200" y="150" width="40" height="40" as="geometry"/>
                </mxCell>
                <mxCell id="32" value="B" style="ellipse;whiteSpace=wrap;html=1;aspect=fixed;strokeColor=#000000;" vertex="1" parent="1">
                    <mxGeometry x="200" y="150" width="40" height="40" as="geometry"/>
                </mxCell>
                <mxCell id="33" value="E" style="ellipse;whiteSpace=wrap;html=1;aspect=fixed;strokeColor=#000000;" vertex="1" parent="1">
                    <mxGeometry x="350" y="280" width="40" height="40" as="geometry"/>
                </mxCell>
                <mxCell id="34" value="G" style="ellipse;whiteSpace=wrap;html=1;aspect=fixed;strokeColor=#000000;" vertex="1" parent="1">
                    <mxGeometry x="460" y="250" width="40" height="40" as="geometry"/>
                </mxCell>
                <mxCell id="48" style="edgeStyle=none;jumpStyle=arc;jumpSize=10;html=1;endArrow=open;endFill=0;strokeColor=#000000;endSize=10;strokeWidth=3;" edge="1" parent="1" source="25" target="4">
                    <mxGeometry relative="1" as="geometry">
                        <mxPoint x="166" y="228" as="sourcePoint"/>
                        <mxPoint x="214" y="192" as="targetPoint"/>
                    </mxGeometry>
                </mxCell>
                <mxCell id="49" style="edgeStyle=none;jumpStyle=arc;jumpSize=10;html=1;endArrow=open;endFill=0;strokeColor=#000000;endSize=10;strokeWidth=3;" edge="1" parent="1" source="4" target="33">
                    <mxGeometry relative="1" as="geometry">
                        <mxPoint x="167.48314552242584" y="249.7128586235699" as="sourcePoint"/>
                        <mxPoint x="222.50635297067458" y="280.30606820667936" as="targetPoint"/>
                    </mxGeometry>
                </mxCell>
                <mxCell id="50" style="edgeStyle=none;jumpStyle=arc;jumpSize=10;html=1;endArrow=open;endFill=0;strokeColor=#000000;endSize=10;strokeWidth=3;" edge="1" parent="1" source="33" target="7">
                    <mxGeometry relative="1" as="geometry">
                        <mxPoint x="259.79898987322326" y="292.8284271247462" as="sourcePoint"/>
                        <mxPoint x="360.2010101267765" y="307.1715728752538" as="targetPoint"/>
                    </mxGeometry>
                </mxCell>
                <mxCell id="51" style="edgeStyle=none;jumpStyle=arc;jumpSize=10;html=1;endArrow=open;endFill=0;strokeColor=#000000;endSize=10;strokeWidth=3;" edge="1" parent="1" source="7" target="12">
                    <mxGeometry relative="1" as="geometry">
                        <mxPoint x="252.01412958781475" y="274.01060694562875" as="sourcePoint"/>
                        <mxPoint x="318.0244227836657" y="186.01828799637065" as="targetPoint"/>
                    </mxGeometry>
                </mxCell>
                <mxCell id="52" style="edgeStyle=none;jumpStyle=arc;html=1;endArrow=open;endFill=0;strokeColor=#000000;endSize=10;strokeWidth=3;" edge="1" parent="1" source="34" target="19">
                    <mxGeometry relative="1" as="geometry">
                        <mxPoint x="490" y="260" as="sourcePoint"/>
                        <mxPoint x="490" y="190" as="targetPoint"/>
                    </mxGeometry>
                </mxCell>
            </root>
        </mxGraphModel>
    </diagram>
</mxfile>